<?xml version="1.0" encoding="UTF-8" standalone="no"?>
<svg
   xmlns:dc="http://purl.org/dc/elements/1.1/"
   xmlns:cc="http://creativecommons.org/ns#"
   xmlns:rdf="http://www.w3.org/1999/02/22-rdf-syntax-ns#"
   xmlns:svg="http://www.w3.org/2000/svg"
   xmlns="http://www.w3.org/2000/svg"
   xmlns:xlink="http://www.w3.org/1999/xlink"
   xmlns:sodipodi="http://sodipodi.sourceforge.net/DTD/sodipodi-0.dtd"
   xmlns:inkscape="http://www.inkscape.org/namespaces/inkscape"
   sodipodi:docname="album_art.svg"
   viewBox="0 0 800 800"
   height="800"
   width="800"
   xml:space="preserve"
   id="svg2"
   version="1.1"
   inkscape:version="1.0.2 (e86c870879, 2021-01-15)"><metadata
     id="metadata8"><rdf:RDF><cc:Work
         rdf:about=""><dc:format>image/svg+xml</dc:format><dc:type
           rdf:resource="http://purl.org/dc/dcmitype/StillImage" /><dc:title></dc:title></cc:Work></rdf:RDF></metadata><defs
     id="defs6"><pattern
       inkscape:collect="always"
       xlink:href="#pattern3798"
       id="pattern4480"
       patternTransform="matrix(-0.69360662,0.04108794,0.04108794,0.69360662,516.13797,50.542846)" /><pattern
       inkscape:collect="always"
       xlink:href="#pattern3320"
       id="pattern3798"
       patternTransform="matrix(0.75000002,0,0,0.75000002,107.80396,-106.62278)" /><pattern
       patternUnits="userSpaceOnUse"
       width="66.447057"
       height="50.321323"
       patternTransform="translate(10.418824,181.68489)"
       id="pattern3320"><g
         id="g3318"
         transform="matrix(1.3333333,0,0,-1.3333333,-10.418824,569.30178)"><rect
           style="fill:#ffd42a;fill-opacity:1;stroke:none;stroke-width:12.3011;stroke-miterlimit:4;stroke-dasharray:none;stroke-opacity:1"
           id="rect3262"
           width="49.371487"
           height="37.603806"
           x="7.8141184"
           y="-426.87726"
           transform="scale(1,-1)" /><rect
           style="fill:#28220b;fill-opacity:1;stroke:none;stroke-width:14.3638;stroke-miterlimit:4;stroke-dasharray:none;stroke-opacity:1"
           id="rect3264"
           width="22.749346"
           height="37.740993"
           x="34.900066"
           y="-426.97635"
           transform="scale(1,-1)" /></g></pattern></defs><sodipodi:namedview
     pagecolor="#ffffff"
     bordercolor="#666666"
     borderopacity="1"
     objecttolerance="10"
     gridtolerance="10"
     guidetolerance="10"
     inkscape:pageopacity="0"
     inkscape:pageshadow="2"
     inkscape:window-width="1920"
     inkscape:window-height="1016"
     id="namedview4"
     showgrid="false"
     inkscape:zoom="0.81163362"
     inkscape:cx="289.11646"
     inkscape:cy="362.85609"
     inkscape:window-x="0"
     inkscape:window-y="27"
     inkscape:window-maximized="1"
     inkscape:current-layer="g10"
     inkscape:document-rotation="0" /><g
     id="g10"
     inkscape:groupmode="layer"
     inkscape:label="ink_ext_XXXXXX"
     transform="matrix(1.3333333,0,0,-1.3333333,0,750.98667)"><rect
       style="fill:#a83e4b;fill-opacity:1;stroke:#bebf80;stroke-width:0.995608;stroke-miterlimit:4;stroke-dasharray:none;stroke-opacity:1"
       id="rect4522"
       width="603.57343"
       height="600.66718"
       x="-0.66425526"
       y="-562.06281"
       transform="scale(1,-1)" /><path
       d="m 349.7278,334.17582 c -0.84212,0 -1.38973,1.0104 -1.38973,2.79045 0,1.86224 0.58904,2.8513 1.40008,2.8513 0.95863,0 1.38973,-1.10557 1.38973,-2.79046 0,-1.74573 -0.45245,-2.85129 -1.40008,-2.85129 m 0.0641,6.35894 c -1.39038,0 -2.38008,-1.2635 -2.38008,-3.55944 0.0214,-2.26356 0.92627,-3.51671 2.26356,-3.51671 1.51594,0 2.37943,1.28552 2.37943,3.61122 0,2.18007 -0.82141,3.46493 -2.26291,3.46493 m -39.36156,-6.35894 c -0.84212,0 -1.38973,1.0104 -1.38973,2.79045 0,1.86224 0.59032,2.8513 1.40008,2.8513 0.95798,0 1.38908,-1.10557 1.38908,-2.79046 0,-1.74573 -0.45245,-2.85129 -1.39943,-2.85129 m 0.0634,6.35894 c -1.38973,0 -2.38008,-1.2635 -2.38008,-3.55944 0.0214,-2.26356 0.92692,-3.51671 2.26421,-3.51671 1.51595,0 2.37878,1.28552 2.37878,3.61122 0,2.18007 -0.82076,3.46493 -2.26291,3.46493 m -3.46687,-4.73879 c 0,-1.3373 -1.0648,-2.33736 -2.54902,-2.33736 -0.74697,0 -1.37808,0.21167 -1.70431,0.4214 l 0.23108,0.70554 c 0.2848,-0.1696 0.84083,-0.37932 1.46351,-0.37932 0.8732,0 1.62081,0.56767 1.62081,1.48553 -0.0101,0.88354 -0.60004,1.51465 -1.96775,1.51465 -0.39031,0 -0.69519,-0.0415 -0.94893,-0.0731 l 0.44211,3.28499 h 3.27592 v -0.77933 h -2.61181 l -0.26281,-1.75869 c 0.1573,0.0214 0.30424,0.0434 0.55798,0.0434 0.52623,0 1.05183,-0.1165 1.47322,-0.36959 0.53725,-0.30488 0.98,-0.89391 0.98,-1.75804 m -36.25718,-1.62015 c -0.84405,0 -1.38972,1.0104 -1.38972,2.79045 0,1.86225 0.58968,2.8513 1.39879,2.8513 0.95928,0 1.39038,-1.10556 1.39038,-2.79045 0,-1.74574 -0.45117,-2.8513 -1.39945,-2.8513 m 0.0641,6.35894 c -1.39038,0 -2.38137,-1.2635 -2.38137,-3.55943 0.0221,-2.26357 0.92756,-3.51671 2.26421,-3.51671 1.51659,0 2.37942,1.28552 2.37942,3.61121 0,2.18007 -0.82076,3.46493 -2.26226,3.46493 m -5.46765,-6.35894 c -0.84211,0 -1.38908,1.0104 -1.38908,2.79045 0,1.86225 0.58839,2.8513 1.40009,2.8513 0.95733,0 1.38908,-1.10556 1.38908,-2.79045 0,-1.74574 -0.45246,-2.8513 -1.40009,-2.8513 m 0.0628,6.35894 c -1.38907,0 -2.37877,-1.2635 -2.37877,-3.55943 0.0214,-2.26357 0.92691,-3.51671 2.26421,-3.51671 1.51529,0 2.37812,1.28552 2.37812,3.61121 0,2.18007 -0.8214,3.46493 -2.26356,3.46493 m -5.57185,-0.11651 h 0.78904 v -6.84312 h -0.8952 v 5.98093 h -0.0207 l -1.19036,-0.6434 -0.1793,0.70426 z m 76.99745,31.45818 c -0.0518,2.11857 0.0564,4.24168 0.37931,6.33436 0.31846,2.08815 0.77157,4.16336 1.52825,6.13435 -0.2026,-1.03373 -0.38578,-2.06357 -0.51136,-3.10311 -0.15146,-1.03371 -0.27057,-2.06936 -0.34888,-3.10827 -0.15924,-2.07779 -0.24274,-4.15624 -0.1696,-6.23143 0.0518,-2.07521 0.26151,-4.14329 0.58774,-6.19585 0.33335,-2.05255 0.84341,-4.0779 1.46611,-6.08839 -0.48741,0.93469 -0.88032,1.91598 -1.24991,2.90568 -0.34242,1.00136 -0.63305,2.02019 -0.87838,3.05067 -0.48999,2.06356 -0.72884,4.18343 -0.80328,6.30199 m -1.96452,0 c -0.0518,2.11857 0.0557,4.24168 0.37867,6.33436 0.31847,2.08815 0.77221,4.16336 1.52953,6.13435 -0.20324,-1.03373 -0.38643,-2.06357 -0.51264,-3.10311 -0.15082,-1.03371 -0.26992,-2.06936 -0.3489,-3.10827 -0.15923,-2.07779 -0.24208,-4.15624 -0.16958,-6.23143 0.0525,-2.07521 0.26214,-4.14329 0.58838,-6.19585 0.33335,-2.05255 0.84213,-4.0779 1.46546,-6.08839 -0.48676,0.93469 -0.88096,1.91598 -1.24991,2.90568 -0.34177,1.00136 -0.63175,2.02019 -0.87708,3.05067 -0.49128,2.06356 -0.73014,4.18343 -0.80393,6.30199 m -1.96516,0 c -0.0511,2.11857 0.0569,4.24168 0.37931,6.33436 0.31782,2.08815 0.77156,4.16336 1.5289,6.13435 -0.2026,-1.03373 -0.38579,-2.06357 -0.51201,-3.10311 -0.15082,-1.03371 -0.26991,-2.06936 -0.34889,-3.10827 -0.15923,-2.07779 -0.24273,-4.15624 -0.16959,-6.23143 0.0518,-2.07521 0.26215,-4.14329 0.58773,-6.19585 0.33401,-2.05255 0.84407,-4.0779 1.46676,-6.08839 -0.48741,0.93469 -0.88095,1.91598 -1.25056,2.90568 -0.34176,1.00136 -0.63305,2.02019 -0.87837,3.05067 -0.48935,2.06356 -0.72884,4.18343 -0.80328,6.30199 m -1.96452,0 c -0.0511,2.11857 0.0569,4.24168 0.37931,6.33436 0.31717,2.08815 0.77157,4.16336 1.52825,6.13435 -0.20195,-1.03373 -0.38578,-2.06357 -0.51201,-3.10311 -0.15017,-1.03371 -0.26992,-2.06936 -0.34888,-3.10827 -0.15923,-2.07779 -0.2421,-4.15624 -0.16894,-6.23143 0.0524,-2.07521 0.26214,-4.14329 0.58837,-6.19585 0.33271,-2.05255 0.84278,-4.0779 1.46481,-6.08839 -0.48675,0.93469 -0.88031,1.91598 -1.24925,2.90568 -0.34242,1.00136 -0.63371,2.02019 -0.87838,3.05067 -0.49064,2.06356 -0.72949,4.18343 -0.80328,6.30199 m -1.96452,0 c -0.0518,2.11857 0.0564,4.24168 0.37867,6.33436 0.31847,2.08815 0.77157,4.16336 1.52889,6.13435 -0.2026,-1.03373 -0.38514,-2.06357 -0.51201,-3.10311 -0.15082,-1.03371 -0.26991,-2.06936 -0.34953,-3.10827 -0.15924,-2.07779 -0.24144,-4.15624 -0.16894,-6.23143 0.0518,-2.07521 0.26215,-4.14329 0.58838,-6.19585 0.33206,-2.05255 0.84278,-4.0779 1.46546,-6.08839 -0.4874,0.93469 -0.88031,1.91598 -1.24927,2.90568 -0.34306,1.00136 -0.63305,2.02019 -0.87836,3.05067 -0.49066,2.06356 -0.72949,4.18343 -0.80329,6.30199 m -1.96452,0 c -0.0511,2.11857 0.0569,4.24168 0.37931,6.33436 0.31717,2.08815 0.76963,4.16336 1.52825,6.13435 -0.20195,-1.03373 -0.38643,-2.06357 -0.51265,-3.10311 -0.15082,-1.03371 -0.26928,-2.06936 -0.34824,-3.10827 -0.15923,-2.07779 -0.24273,-4.15624 -0.17024,-6.23143 0.0518,-2.07521 0.26346,-4.14329 0.58774,-6.19585 0.33465,-2.05255 0.84406,-4.0779 1.46676,-6.08839 -0.48677,0.93469 -0.88032,1.91598 -1.25057,2.90568 -0.34241,1.00136 -0.63239,2.02019 -0.87707,3.05067 -0.49065,2.06356 -0.73014,4.18343 -0.80329,6.30199 m -1.96516,0 c -0.0511,2.11857 0.0569,4.24168 0.37931,6.33436 0.31653,2.08815 0.77157,4.16336 1.52824,6.13435 -0.2026,-1.03373 -0.38643,-2.06357 -0.51135,-3.10311 -0.15146,-1.03371 -0.27057,-2.06936 -0.34954,-3.10827 -0.15923,-2.07779 -0.24143,-4.15624 -0.16894,-6.23143 0.0518,-2.07521 0.2615,-4.14329 0.58774,-6.19585 0.33335,-2.05255 0.84342,-4.0779 1.46611,-6.08839 -0.48741,0.93469 -0.88031,1.91598 -1.24992,2.90568 -0.34242,1.00136 -0.63304,2.02019 -0.87837,3.05067 -0.48999,2.06356 -0.72884,4.18343 -0.80328,6.30199 m -1.96452,0 c -0.0524,2.11857 0.0557,4.24168 0.37802,6.33436 0.3191,2.08815 0.77221,4.16336 1.5289,6.13435 -0.20196,-1.03373 -0.38515,-2.06357 -0.51137,-3.10311 -0.15081,-1.03371 -0.27121,-2.06936 -0.34888,-3.10827 -0.15923,-2.07779 -0.24208,-4.15624 -0.1696,-6.23143 0.0511,-2.07521 0.26151,-4.14329 0.58774,-6.19585 0.33336,-2.05255 0.84341,-4.0779 1.46611,-6.08839 -0.48676,0.93469 -0.88095,1.91598 -1.25056,2.90568 -0.34176,1.00136 -0.63175,2.02019 -0.87642,3.05067 -0.4913,2.06356 -0.73015,4.18343 -0.80394,6.30199 m -1.96516,0 c -0.0511,2.11857 0.0569,4.24168 0.37866,6.33436 0.31847,2.08815 0.77221,4.16336 1.52955,6.13435 -0.20261,-1.03373 -0.3871,-2.06357 -0.51137,-3.10311 -0.15211,-1.03371 -0.27056,-2.06936 -0.34954,-3.10827 -0.15988,-2.07779 -0.24273,-4.15624 -0.17022,-6.23143 0.0525,-2.07521 0.26278,-4.14329 0.58837,-6.19585 0.334,-2.05255 0.84407,-4.0779 1.46611,-6.08839 -0.48676,0.93469 -0.88031,1.91598 -1.25055,2.90568 -0.34112,1.00136 -0.63241,2.02019 -0.87774,3.05067 -0.49128,2.06356 -0.72884,4.18343 -0.80327,6.30199 m -1.96452,0 c -0.0518,2.11857 0.0564,4.24168 0.37867,6.33436 0.31782,2.08815 0.7722,4.16336 1.52824,6.13435 -0.20131,-1.03373 -0.38514,-2.06357 -0.51201,-3.10311 -0.14952,-1.03371 -0.26926,-2.06936 -0.34824,-3.10827 -0.15923,-2.07779 -0.24208,-4.15624 -0.16893,-6.23143 0.0518,-2.07521 0.26149,-4.14329 0.58708,-6.19585 0.33401,-2.05255 0.84406,-4.0779 1.4661,-6.08839 -0.48611,0.93469 -0.8803,1.91598 -1.24926,2.90568 -0.34241,1.00136 -0.6337,2.02019 -0.87901,3.05067 -0.48936,2.06356 -0.72885,4.18343 -0.80264,6.30199 m -1.96452,0 c -0.0518,2.11857 0.0564,4.24168 0.37866,6.33436 0.31847,2.08815 0.77157,4.16336 1.5289,6.13435 -0.2026,-1.03373 -0.38578,-2.06357 -0.51201,-3.10311 -0.15082,-1.03371 -0.27057,-2.06936 -0.34953,-3.10827 -0.15923,-2.07779 -0.24209,-4.15624 -0.16959,-6.23143 0.0531,-2.07521 0.2628,-4.14329 0.58838,-6.19585 0.33335,-2.05255 0.84342,-4.0779 1.46611,-6.08839 -0.48741,0.93469 -0.88097,1.91598 -1.24991,2.90568 -0.34242,1.00136 -0.6324,2.02019 -0.87773,3.05067 -0.49064,2.06356 -0.72948,4.18343 -0.80328,6.30199 m -1.96581,0 c -0.0505,2.11857 0.0576,4.24168 0.37996,6.33436 0.31782,2.08815 0.77092,4.16336 1.52824,6.13435 -0.2026,-1.03373 -0.38578,-2.06357 -0.512,-3.10311 -0.15081,-1.03371 -0.26927,-2.06936 -0.34824,-3.10827 -0.15924,-2.07779 -0.24209,-4.15624 -0.17024,-6.23143 0.0518,-2.07521 0.2628,-4.14329 0.58839,-6.19585 0.33335,-2.05255 0.84342,-4.0779 1.46545,-6.08839 -0.48611,0.93469 -0.87966,1.91598 -1.24927,2.90568 -0.34371,1.00136 -0.63304,2.02019 -0.87836,3.05067 -0.49001,2.06356 -0.72949,4.18343 -0.80393,6.30199 m -1.96387,0 c -0.0511,2.11857 0.0569,4.24168 0.3793,6.33436 0.31782,2.08815 0.77157,4.16336 1.52825,6.13435 -0.20195,-1.03373 -0.38643,-2.06357 -0.51136,-3.10311 -0.15146,-1.03371 -0.27057,-2.06936 -0.34953,-3.10827 -0.15923,-2.07779 -0.24209,-4.15624 -0.16959,-6.23143 0.0525,-2.07521 0.26216,-4.14329 0.58839,-6.19585 0.33335,-2.05255 0.84341,-4.0779 1.46611,-6.08839 -0.48741,0.93469 -0.88096,1.91598 -1.25057,2.90568 -0.34177,1.00136 -0.63239,2.02019 -0.87771,3.05067 -0.49001,2.06356 -0.73015,4.18343 -0.80329,6.30199 m -1.96388,0 c -0.0524,2.11857 0.055,4.24168 0.37802,6.33436 0.31847,2.08815 0.77157,4.16336 1.52824,6.13435 -0.2026,-1.03373 -0.38513,-2.06357 -0.51135,-3.10311 -0.15146,-1.03371 -0.27057,-2.06936 -0.34889,-3.10827 -0.15923,-2.07779 -0.24208,-4.15624 -0.16959,-6.23143 0.0518,-2.07521 0.2615,-4.14329 0.58774,-6.19585 0.33335,-2.05255 0.84342,-4.0779 1.46611,-6.08839 -0.48741,0.93469 -0.88031,1.91598 -1.24992,2.90568 -0.3424,1.00136 -0.63239,2.02019 -0.87772,3.05067 -0.49063,2.06356 -0.72949,4.18343 -0.80264,6.30199 m -1.96581,0 c -0.0511,2.11857 0.0569,4.24168 0.37931,6.33436 0.31846,2.08815 0.77157,4.16336 1.52825,6.13435 -0.2026,-1.03373 -0.38579,-2.06357 -0.512,-3.10311 -0.15082,-1.03371 -0.26928,-2.06936 -0.34824,-3.10827 -0.15923,-2.07779 -0.24209,-4.15624 -0.17025,-6.23143 0.0524,-2.07521 0.26281,-4.14329 0.5884,-6.19585 0.33399,-2.05255 0.84405,-4.0779 1.46545,-6.08839 -0.48611,0.93469 -0.88031,1.91598 -1.24991,2.90568 -0.34177,1.00136 -0.63175,2.02019 -0.87707,3.05067 -0.4913,2.06356 -0.73015,4.18343 -0.80394,6.30199 m -1.96516,0 c -0.0499,2.11857 0.0569,4.24168 0.37866,6.33436 0.31847,2.08815 0.77286,4.16336 1.52955,6.13435 -0.2026,-1.03373 -0.38579,-2.06357 -0.51137,-3.10311 -0.15146,-1.03371 -0.27056,-2.06936 -0.34954,-3.10827 -0.15922,-2.07779 -0.24338,-4.15624 -0.16893,-6.23143 0.0518,-2.07521 0.26149,-4.14329 0.58709,-6.19585 0.33399,-2.05255 0.84406,-4.0779 1.46676,-6.08839 -0.48742,0.93469 -0.88097,1.91598 -1.24991,2.90568 -0.34242,1.00136 -0.63371,2.02019 -0.87903,3.05067 -0.48999,2.06356 -0.72885,4.18343 -0.80328,6.30199 m -1.96452,0 c -0.0511,2.11857 0.0569,4.24168 0.37997,6.33436 0.31781,2.08815 0.77091,4.16336 1.52759,6.13435 -0.20196,-1.03373 -0.38514,-2.06357 -0.51266,-3.10311 -0.14952,-1.03371 -0.26926,-2.06936 -0.34823,-3.10827 -0.15924,-2.07779 -0.24079,-4.15624 -0.16894,-6.23143 0.0525,-2.07521 0.26214,-4.14329 0.58838,-6.19585 0.33271,-2.05255 0.84213,-4.0779 1.46481,-6.08839 -0.48611,0.93469 -0.88031,1.91598 -1.24927,2.90568 -0.34241,1.00136 -0.6324,2.02019 -0.87772,3.05067 -0.49,2.06356 -0.72949,4.18343 -0.80393,6.30199 m -1.96517,0 c -0.0505,2.11857 0.0583,4.24168 0.37996,6.33436 0.31782,2.08815 0.77092,4.16336 1.52825,6.13435 -0.2026,-1.03373 -0.38578,-2.06357 -0.51136,-3.10311 -0.15147,-1.03371 -0.26992,-2.06936 -0.34888,-3.10827 -0.15924,-2.07779 -0.2421,-4.15624 -0.17024,-6.23143 0.0525,-2.07521 0.26216,-4.14329 0.58838,-6.19585 0.33336,-2.05255 0.84342,-4.0779 1.46546,-6.08839 -0.48741,0.93469 -0.88095,1.91598 -1.24991,2.90568 -0.34307,1.00136 -0.6324,2.02019 -0.87708,3.05067 -0.49064,2.06356 -0.73013,4.18343 -0.80458,6.30199 m -1.96515,0 c -0.0505,2.11857 0.0583,4.24168 0.37995,6.33436 0.31782,2.08815 0.77222,4.16336 1.52889,6.13435 -0.20195,-1.03373 -0.38643,-2.06357 -0.51136,-3.10311 -0.1521,-1.03371 -0.27056,-2.06936 -0.34953,-3.10827 -0.15924,-2.07779 -0.24208,-4.15624 -0.17024,-6.23143 0.0531,-2.07521 0.26345,-4.14329 0.58839,-6.19585 0.334,-2.05255 0.84406,-4.0779 1.46739,-6.08839 -0.4874,0.93469 -0.88095,1.91598 -1.25121,2.90568 -0.34176,1.00136 -0.63304,2.02019 -0.87771,3.05067 -0.49,2.06356 -0.73014,4.18343 -0.80457,6.30199 m -1.96323,0 c -0.0518,2.11857 0.0564,4.24168 0.37866,6.33436 0.31846,2.08815 0.77156,4.16336 1.52824,6.13435 -0.2026,-1.03373 -0.38513,-2.06357 -0.51134,-3.10311 -0.15148,-1.03371 -0.27058,-2.06936 -0.34954,-3.10827 -0.15924,-2.07779 -0.24144,-4.15624 -0.1683,-6.23143 0.0511,-2.07521 0.26151,-4.14329 0.58775,-6.19585 0.33269,-2.05255 0.84275,-4.0779 1.46545,-6.08839 -0.48741,0.93469 -0.88096,1.91598 -1.24992,2.90568 -0.34241,1.00136 -0.63304,2.02019 -0.87771,3.05067 -0.49065,2.06356 -0.7295,4.18343 -0.80329,6.30199 m -1.96451,0 c -0.0518,2.11857 0.0564,4.24168 0.37865,6.33436 0.31782,2.08815 0.77092,4.16336 1.52761,6.13435 -0.20197,-1.03373 -0.38514,-2.06357 -0.51137,-3.10311 -0.15016,-1.03371 -0.26992,-2.06936 -0.34759,-3.10827 -0.16117,-2.07779 -0.24273,-4.15624 -0.17089,-6.23143 0.0525,-2.07521 0.2628,-4.14329 0.58839,-6.19585 0.33465,-2.05255 0.84342,-4.0779 1.46547,-6.08839 -0.48742,0.93469 -0.88032,1.91598 -1.24991,2.90568 -0.34242,1.00136 -0.63176,2.02019 -0.87774,3.05067 -0.49063,2.06356 -0.72949,4.18343 -0.80262,6.30199 m -1.96518,0 c -0.0524,2.11857 0.0564,4.24168 0.37866,6.33436 0.31782,2.08815 0.77158,4.16336 1.52825,6.13435 -0.20066,-1.03373 -0.38578,-2.06357 -0.5107,-3.10311 -0.15148,-1.03371 -0.27057,-2.06936 -0.34954,-3.10827 -0.15858,-2.07779 -0.24208,-4.15624 -0.17023,-6.23143 0.0531,-2.07521 0.26279,-4.14329 0.58838,-6.19585 0.33399,-2.05255 0.84405,-4.0779 1.4661,-6.08839 -0.48675,0.93469 -0.88031,1.91598 -1.24926,2.90568 -0.34242,1.00136 -0.6337,2.02019 -0.87837,3.05067 -0.49,2.06356 -0.73014,4.18343 -0.80329,6.30199 M 373.29155,233.1841 c 0,-1.2784 -1.04083,-2.32053 -2.31988,-2.32053 h -7.65094 c -1.27838,0 -2.31987,1.04213 -2.31987,2.32053 v 7.65029 c 0,1.27839 1.04149,2.32052 2.31987,2.32052 h 7.65094 c 1.27905,0 2.31988,-1.04213 2.31988,-2.32052 z m -2.31988,10.84789 h -7.65094 c -1.76256,0 -3.19695,-1.43374 -3.19695,-3.1976 v -7.65029 c 0,-1.76256 1.43439,-3.1976 3.19695,-3.1976 h 7.65094 c 1.76322,0 3.1976,1.43504 3.1976,3.1976 v 7.65029 c 0,1.76386 -1.43438,3.1976 -3.1976,3.1976 M 255.65674,233.1841 c 0,-1.2784 -1.04084,-2.32053 -2.31924,-2.32053 h -7.65222 c -1.2784,0 -2.31859,1.04213 -2.31859,2.32053 v 7.65029 c 0,1.27839 1.04019,2.32052 2.31859,2.32052 h 7.65222 c 1.2784,0 2.31924,-1.04213 2.31924,-2.32052 z m -2.31924,10.84789 h -7.65222 c -1.76258,0 -3.19632,-1.43374 -3.19632,-3.1976 v -7.65029 c 0,-1.76256 1.43374,-3.1976 3.19632,-3.1976 h 7.65222 c 1.76322,0 3.1976,1.43504 3.1976,3.1976 v 7.65029 c 0,1.76386 -1.43438,3.1976 -3.1976,3.1976 M 416.45205,232.1808 c 0,-4.76792 -3.86366,-8.63222 -8.63159,-8.63222 -4.76727,0 -8.63222,3.8643 -8.63222,8.63222 0,4.76663 3.86495,8.63159 8.63222,8.63159 4.76793,0 8.63159,-3.86496 8.63159,-8.63159 m -198.39754,0 c 0,-4.76792 -3.86495,-8.63222 -8.63223,-8.63222 -4.76727,0 -8.63158,3.8643 -8.63158,8.63222 0,4.76663 3.86431,8.63159 8.63158,8.63159 4.76728,0 8.63223,-3.86496 8.63223,-8.63159 m 94.17711,27.53433 -2.13799,0.11005 0.10938,-2.13735 -1.43502,1.58973 -1.43375,-1.58973 0.10871,2.13735 -2.13671,-0.11005 1.58715,1.43502 -1.58715,1.43504 2.13671,-0.10871 -0.10871,2.1367 1.43375,-1.5878 1.43502,1.5878 -0.10938,-2.1367 2.13799,0.10871 -1.58974,-1.43504 z m -3.46363,8.01924 c -3.63064,0 -6.58357,-2.95228 -6.58357,-6.58422 0,-3.62933 2.95293,-6.58419 6.58357,-6.58419 3.62998,0 6.58419,2.95486 6.58419,6.58419 0,3.63194 -2.95421,6.58422 -6.58419,6.58422 m 126.40167,9.07173 13.16843,-56.37681 -0.32495,-0.0751 -0.10288,-0.0246 -0.42721,-0.0991 -0.0239,0.0991 -13.14512,56.27713 c -0.22979,0.98193 -0.76898,1.83312 -1.55801,2.45969 -0.79034,0.62656 -1.74252,0.95863 -2.75034,0.95863 h -244.1459 c -0.90555,0 -1.75738,-0.29839 -2.4668,-0.86218 -0.70749,-0.56509 -1.18778,-1.33019 -1.39038,-2.21373 l -13.02408,-57.05776 -0.0221,-0.0977 -0.46217,0.10546 -0.3929,0.0886 13.04608,57.15679 c 0.24662,1.07967 0.83306,2.01435 1.69848,2.70307 0.85314,0.6803 1.92439,1.05572 3.01377,1.05572 h 244.14589 c 1.20849,0 2.34836,-0.39678 3.29599,-1.14958 0.94569,-0.7502 1.59167,-1.77033 1.86807,-2.94775 m -83.82505,67.30303 h -3.51153 v 9.65559 h 3.51153 z m -42.13777,0 h -3.51153 v 9.65559 h 3.51153 z m 32.48089,9.65559 h 1.7561 v -6.14471 h -1.7561 z m -9.65623,0 h 1.75609 v -6.14471 h -1.75609 z m -7.90079,0 h 1.75479 v -6.14471 h -1.75479 z m -9.65624,0 h 1.7548 v -6.14471 h -1.7548 z m -14.92386,0 h 1.75545 v -6.14471 h -1.75545 z m -9.65753,0 h 1.75674 v -6.14471 h -1.75674 z m -7.90014,0 h 1.75543 v -6.14471 h -1.75543 z m -9.65625,0 h 1.75544 v -6.14471 h -1.75544 z m -5.26698,-9.65559 h -3.51218 v 9.65559 h 3.51218 z m 74.78374,41.26006 -0.11976,-0.24661 c -1.33859,-2.74839 -2.38655,-7.74934 -2.38655,-11.38581 0,-5.46115 1.29458,-10.51906 3.72385,-14.70378 h -49.66573 c -2.63317,6.78357 -3.84036,17.8865 0,26.3362 z m 7.28909,-0.87838 -0.42461,-25.45782 h -4.64688 c -2.5173,4.13034 -3.84619,9.20832 -3.84619,14.70378 0,3.41639 0.94829,8.06262 2.18071,10.75404 z m -86.46264,-27.21325 h 89.54189 v 28.9687 h -89.54189 z m 132.26546,-23.26416 c -15.08504,0 -27.3589,12.27386 -27.3589,27.36019 0,15.0857 12.27386,27.35891 27.3589,27.35891 15.08569,0 27.35956,-12.27321 27.35956,-27.35891 0,-15.08633 -12.27387,-27.36019 -27.35956,-27.36019 m 0,55.59747 c -15.56985,0 -28.23663,-12.66742 -28.23663,-28.23728 0,-15.5705 12.66678,-28.23792 28.23663,-28.23792 15.5705,0 28.23858,12.66742 28.23858,28.23792 0,15.56986 -12.66808,28.23728 -28.23858,28.23728 m 0,-50.77777 c -12.42792,0 -22.53855,10.11192 -22.53855,22.54049 0,12.42793 10.11063,22.5405 22.53855,22.5405 12.42858,0 22.53985,-10.11257 22.53985,-22.5405 0,-12.42857 -10.11127,-22.54049 -22.53985,-22.54049 m 0,46.68237 c -13.31147,0 -24.14059,-10.83105 -24.14059,-24.14188 0,-13.31146 10.82912,-24.14124 24.14059,-24.14124 13.31147,0 24.14253,10.82978 24.14253,24.14124 0,13.31083 -10.83106,24.14188 -24.14253,24.14188 m 13.72186,-16.03201 2.43638,1.92374 c 1.81693,-2.91473 2.87073,-6.35313 2.87073,-10.03361 0,-1.16511 -0.11129,-2.30434 -0.312,-3.41184 l -3.45263,1.33016 -2.20919,-5.73431 3.59439,-1.3852 c -2.93416,-5.28834 -8.31312,-9.04002 -14.60087,-9.71579 v 3.40797 h -6.1447 v -3.07073 c -3.63452,0.8007 -6.88262,2.64158 -9.41351,5.19513 l 2.42475,1.91468 -3.80735,4.82293 -2.18848,-1.72696 c -1.24474,2.52766 -1.94704,5.37055 -1.94704,8.37396 0,1.31917 0.13592,2.60857 0.39355,3.85331 l 3.07721,-1.18519 2.20984,5.73367 -3.07787,1.18584 c 2.64095,4.50771 7.08069,7.83412 12.3289,8.99148 v -4.24038 h 6.1447 v 4.57761 c 3.79764,-0.40844 7.26451,-1.93669 10.06079,-4.2488 l -2.19559,-1.73279 z M 220.25021,334.01335 c -15.08569,0 -27.35956,12.27386 -27.35956,27.36019 0,15.08569 12.27387,27.3589 27.35956,27.3589 15.08633,0 27.35955,-12.27321 27.35955,-27.3589 0,-15.08633 -12.27322,-27.36019 -27.35955,-27.36019 m 0,55.59747 c -15.57051,0 -28.23793,-12.66742 -28.23793,-28.23728 0,-15.57051 12.66742,-28.23793 28.23793,-28.23793 15.56985,0 28.23791,12.66742 28.23791,28.23793 0,15.56986 -12.66806,28.23728 -28.23791,28.23728 m 0,-50.77778 c -12.42793,0 -22.53986,10.11193 -22.53986,22.5405 0,12.42792 10.11193,22.5405 22.53986,22.5405 12.42727,0 22.53984,-10.11258 22.53984,-22.5405 0,-12.42857 -10.11257,-22.5405 -22.53984,-22.5405 m 0,46.68238 c -13.31083,0 -24.14059,-10.83106 -24.14059,-24.14188 0,-13.31146 10.82976,-24.14124 24.14059,-24.14124 13.31017,0 24.14123,10.82978 24.14123,24.14124 0,13.31082 -10.83106,24.14188 -24.14123,24.14188 m 13.72185,-16.03201 2.43575,1.92374 c 1.81757,-2.91474 2.86941,-6.35313 2.86941,-10.03361 0,-1.16512 -0.11005,-2.30434 -0.31134,-3.41184 l -3.45068,1.33016 -2.2105,-5.73431 3.5944,-1.3852 c -2.93482,-5.28834 -8.31247,-9.04002 -14.60023,-9.71579 v 3.40797 h -6.14599 v -3.07073 c -3.63453,0.8007 -6.88262,2.64029 -9.41286,5.19513 l 2.42538,1.91468 -3.80799,4.82293 -2.18848,-1.72696 c -1.24473,2.52766 -1.94704,5.37054 -1.94704,8.37396 0,1.31982 0.13658,2.60986 0.3929,3.8533 l 3.07786,-1.18519 2.20919,5.73368 -3.07721,1.18584 c 2.64094,4.50771 7.08005,7.83411 12.32825,8.99147 v -4.24038 h 6.14599 v 4.57761 c 3.79764,-0.40844 7.26386,-1.93668 10.06079,-4.24879 l -2.19624,-1.73279 z m 269.63542,-138.73769 -2.13864,0.11072 0.10938,-2.13863 -1.43503,1.58975 -1.43439,-1.58975 0.10871,2.13863 -2.1367,-0.11072 1.5891,1.43504 -1.5891,1.43503 2.1367,-0.1087 -0.10871,2.13669 1.43439,-1.58845 1.43503,1.58845 -0.10938,-2.13669 2.13864,0.1087 -1.59038,-1.43503 z m -3.46428,8.01924 c -3.62999,0 -6.58421,-2.95421 -6.58421,-6.5842 0,-3.62999 2.95422,-6.58356 6.58421,-6.58356 3.63128,0 6.58422,2.95357 6.58422,6.58356 0,3.62999 -2.95294,6.5842 -6.58422,6.5842 m -3.46235,230.99689 2.1367,-0.1087 -0.10871,2.13733 1.43439,-1.58974 1.43504,1.58974 -0.10938,-2.13733 2.13864,0.1087 -1.59038,-1.43438 1.59038,-1.4344 -2.13864,0.10815 0.10938,-2.1367 -1.43504,1.58844 -1.43439,-1.58844 0.10871,2.1367 -2.1367,-0.10815 1.5891,1.4344 z m 3.46235,-8.01795 c 3.63128,0 6.58422,2.95293 6.58422,6.58357 0,3.63063 -2.95294,6.5842 -6.58422,6.5842 -3.62999,0 -6.58421,-2.95357 -6.58421,-6.5842 0,-3.63064 2.95422,-6.58357 6.58421,-6.58357 m -384.55415,5.14917 -2.13781,0.10815 0.10916,-2.1367 -1.43413,1.58844 -1.43465,-1.58844 0.10949,2.1367 -2.1378,-0.10815 1.58891,1.4344 -1.58891,1.43438 2.1378,-0.1087 -0.10949,2.13733 1.43465,-1.58974 1.43413,1.58974 -0.10916,-2.13733 2.13781,0.1087 -1.58943,-1.43438 z m 3.12114,1.4344 c 0,3.63063 -2.95324,6.5842 -6.58388,6.5842 -3.63064,0 -6.58388,-2.95357 -6.58388,-6.5842 0,-3.63064 2.95324,-6.58357 6.58388,-6.58357 3.63064,0 6.58388,2.95293 6.58388,6.58357 M 481.26894,413.46013 H 129.2448 v 0.87837 h 352.02414 z m 0,-3.51089 H 129.2448 v 0.87772 h 352.02414 z m -16.14918,-37.90516 -2.30434,6.78616 h -7.65159 l -2.24091,-6.78616 h -2.88172 l 7.32988,21.57863 h 3.36265 l 7.36291,-21.57863 z m -70.1006,-43.69903 -174.76895,-0.0369 c -18.26258,0 -33.06605,14.80217 -33.06605,33.06538 0,18.26194 14.80347,33.06605 33.06605,33.06605 l 174.69516,0.14694 c 18.26257,0 33.10293,-14.8585 33.10293,-33.11978 0,-18.26256 -14.76786,-33.1217 -33.02914,-33.1217 m 100.29593,108.67897 c 0,0.90944 -0.18642,1.79363 -0.55344,2.62735 -0.36896,0.8324 -0.8952,1.56579 -1.56838,2.17877 l -19.89244,18.14217 c -0.31328,0.28546 -0.67318,0.50813 -1.06932,0.66153 -0.39614,0.15341 -0.81234,0.23238 -1.23632,0.23238 H 143.13818 c -0.27555,0 -0.5441,-0.0492 -0.80199,-0.14435 -0.25767,-0.0958 -0.4933,-0.23432 -0.7014,-0.41297 l -21.57843,-18.5545 c -0.14841,-0.12751 -0.265,-0.28222 -0.34669,-0.45958 -0.0809,-0.17735 -0.12213,-0.36571 -0.12213,-0.56119 V 288.80289 h 375.72755 z m -35.18916,-49.8049 2.11275,-6.21072 h -6.49811 l 2.11145,6.24309 c 0.41685,1.3114 0.76898,2.6241 1.08937,3.90444 h 0.0634 c 0.32041,-1.24797 0.64081,-2.52831 1.12109,-3.93681 M 181.63109,285.29265 H 116.07678 V 440.7336 c 0,0.70295 0.14815,1.3826 0.43995,2.02212 0.29581,0.64275 0.7148,1.20072 1.24733,1.65899 l 21.58122,18.5571 c 0.52437,0.44986 1.1198,0.80069 1.76735,1.04148 0.65084,0.24079 1.33251,0.36378 2.02555,0.36378 h 327.85701 c 0.86089,0 1.70366,-0.15794 2.50565,-0.46929 0.802,-0.3107 1.53083,-0.76121 2.16582,-1.34117 l 19.89245,-18.14218 c 1.03566,-0.94245 1.84736,-2.07133 2.41567,-3.35619 0.56508,-1.28229 0.85119,-2.64223 0.85119,-4.04426 V 285.29265 h -64.61096 z m 255.9893,-1.23115 c -0.16182,0.13464 -0.33658,0.24016 -0.50876,0.35343 h 62.59271 v 152.60905 c 0,1.52502 -0.31199,3.00472 -0.92757,4.39897 -0.61686,1.39621 -1.50106,2.62476 -2.62604,3.65007 l -19.8918,18.14346 c -0.71719,0.65246 -1.5386,1.16059 -2.44092,1.51012 -0.90296,0.35019 -1.85318,0.52884 -2.82282,0.52884 H 143.13818 c -0.79822,0 -1.58177,-0.14177 -2.3312,-0.41946 -0.74594,-0.27702 -1.43038,-0.68029 -2.03417,-1.19942 l -21.58095,-18.55643 c -0.62858,-0.54178 -1.12466,-1.20007 -1.47259,-1.95805 -0.34513,-0.75408 -0.52087,-1.55802 -0.52087,-2.38848 V 284.41493 h 63.68042 c -0.12169,-0.0842 -0.24856,-0.15664 -0.36248,-0.25115 -0.89003,-0.73726 -1.49458,-1.73214 -1.74703,-2.88107 l -13.42151,-60.95314 -0.0751,-0.34436 0.85636,-0.18837 0.0207,0.0945 13.47652,61.20299 c 0.21038,0.95411 0.71202,1.78327 1.44928,2.39237 0.73403,0.60652 1.61758,0.92821 2.5555,0.92821 h 252.58392 c 1.04407,0 2.0286,-0.35665 2.84872,-1.03048 0.82141,-0.67576 1.3826,-1.59492 1.62404,-2.65776 l 13.60146,-60.36605 0.007,-0.031 0.0149,-0.0648 0.2874,0.0648 0.56832,0.1288 -13.62347,60.46119 c -0.28286,1.25509 -0.94828,2.34189 -1.92245,3.14194"
       style="fill:#ffffff;fill-opacity:1;fill-rule:nonzero;stroke:none;stroke-width:0.0647288"
       id="path64"
       sodipodi:nodetypes="cssscccssccssscccssccsccscsccccccscccssscccssccssscccssccccccccccccccccccccccccccccccscccccccccccccccccccccccccccsccccccccccccccccccccccccccccccccccccccccccccccccscccccccccccccccccccccccccccccccccccccccccccccccccccccccccccccccccscccccccccccccccccccccccccccccccccccccccccccsccccccccccccccccccccccccccccccccscssssssssscssssssscssssssssscsssssssccsssccssscccccccccccccccccccssscccccccccssccccccccsscccccccccccccccccccccccccccccccccccccccccccccccccccccccccccscccccccsccccccccsssccsssccsssccssscccsccccccccccccsccccccccccccsssccsssccsssccssscccsccccccccccccscccccccccccccccccccccccccccccssscccccccccccccccccccssscccccccccccccccccccsssccccccccccccccccccccccsccscscccsssccccsccscccccccccsccccssccccsccccccsccccssccccsccccccccccssccccccccc" /><path
       d="m 402.95176,230.30416 32.35751,-32.82212 2.06759,34.90321 -32.35746,32.82259 z m 32.35751,-32.82212 29.78244,-35.15119 2.0676,34.90322 -29.78245,35.15118 z m 29.78244,-35.15119 20.56308,-40.72955 2.06761,34.90322 -20.56309,40.72955 z m 20.56308,-40.72955 -33.52661,-8.42412 2.0676,34.90318 33.52662,8.42416 z m -33.52661,-8.42412 -42.55508,17.63907 2.0676,34.90321 42.55508,-17.6391 z m -42.55508,17.63907 -40.4402,21.96035 2.06761,34.90323 40.44019,-21.96037 z m -40.4402,21.96035 -13.8139,-37.29862 2.06761,34.90317 13.8139,37.29868 z m -13.8139,-37.29862 6.13444,-45.668025 2.0676,34.903215 -6.13443,45.66798 z m 6.13444,-45.668025 -22.18969,-11.795579 2.06758,34.903019 22.18971,11.795775 z m -22.18969,-11.795579 -31.89976,33.138839 2.0676,34.903215 31.89974,-33.139035 z m -31.89976,33.138839 -19.2867,41.518245 2.06759,34.90321 19.28671,-41.51824 z m -19.2867,41.518245 -26.81992,-23.9397 2.0676,34.90322 26.81991,23.93969 z m -26.81992,-23.9397 -19.01952,-41.954515 2.06761,34.903315 19.01951,41.95442 z m -19.01952,-41.954515 -36.92374,-24.928599 2.06761,34.903679 36.92374,24.928235 z m -36.92374,-24.928599 -44.51,8.76464 2.06759,34.902839 44.51002,-8.7638 z m -44.51,8.76464 -32.7669,31.362689 2.06761,34.903205 32.76688,-31.363055 z m -32.7669,31.362689 9.02611,41.278695 2.06759,34.90321 -9.02609,-41.2787 z m 9.02611,41.278695 42.19331,17.45706 2.06761,34.90324 -42.19333,-17.45709 z m 42.19331,17.45706 45.74739,5.23043 2.06759,34.90322 -45.74737,-5.23041 z m 45.74739,5.23043 45.96126,0.36563 2.0676,34.90322 -45.96127,-0.36563 z m 45.96126,0.36563 -44.40323,-8.81273 2.0676,34.90319 44.40323,8.81276 z m -44.40323,-8.81273 -45.85725,-4.6412 2.0676,34.90322 45.85725,4.64117 z m -45.85725,-4.6412 -46.02318,-2.42911 2.0676,34.9032 46.02318,2.42913 z m -46.02318,-2.42911 -45.957763,2.34121 2.0676,34.90318 45.957763,-2.34119 z m -45.957763,2.34121 7.47318,26.42206 2.0676,34.9032 -7.47318,-26.42208 z m 7.47318,26.42206 39.935393,23.0189 2.0676,34.90321 -39.935393,-23.01891 z m 39.935393,23.0189 39.3268,24.04101 2.06761,34.90321 -39.32681,-24.04101 z m 39.3268,24.04101 37.54884,26.66043 2.06757,34.90285 -37.5488,-26.66007 z"
       style="fill:url(#pattern4480);stroke:none;stroke-width:0.694822"
       id="rect4888" /><path
       d="m 340.22496,373.73673 c 0,3.41639 0.94829,8.06262 2.18071,10.75403 h 6.73698 l -0.42462,-25.45781 h -4.64688 c -2.5173,4.13099 -3.84619,9.20831 -3.84619,14.70378 m -44.25182,4.47405 c 0.31847,2.08816 0.77223,4.16402 1.53019,6.13371 -0.20195,-1.03308 -0.38772,-2.06291 -0.51199,-3.10246 -0.15148,-1.03371 -0.27057,-2.06937 -0.34954,-3.10826 -0.15859,-2.07781 -0.24273,-4.15624 -0.17024,-6.2308 0.0531,-2.07585 0.2628,-4.14393 0.58839,-6.19649 0.33399,-2.05254 0.84405,-4.07726 1.4661,-6.08839 -0.48675,0.93468 -0.88031,1.91598 -1.24926,2.90632 -0.34242,1.00071 -0.6337,2.01954 -0.87902,3.05003 -0.49065,2.06484 -0.72949,4.18342 -0.80264,6.30199 -0.0505,2.11857 0.0564,4.24232 0.37801,6.33435 m 1.96582,0 c 0.31782,2.08816 0.77092,4.16402 1.5276,6.13371 -0.20196,-1.03308 -0.38513,-2.06291 -0.51136,-3.10246 -0.15016,-1.03371 -0.26992,-2.06937 -0.34759,-3.10826 -0.15924,-2.07781 -0.24273,-4.15624 -0.17089,-6.2308 0.0511,-2.07585 0.2628,-4.14393 0.58839,-6.19649 0.33465,-2.05254 0.84342,-4.07726 1.46547,-6.08839 -0.48742,0.93468 -0.88032,1.91598 -1.25056,2.90632 -0.34177,1.00071 -0.63112,2.01954 -0.87709,3.05003 -0.49063,2.06484 -0.72949,4.18342 -0.80263,6.30199 -0.0524,2.11857 0.0564,4.24232 0.37866,6.33435 m 1.96452,0 c 0.31846,2.08816 0.77156,4.16402 1.52824,6.13371 -0.2026,-1.03308 -0.38513,-2.06291 -0.51134,-3.10246 -0.15019,-1.03371 -0.27058,-2.06937 -0.34954,-3.10826 -0.15924,-2.07781 -0.24144,-4.15624 -0.16895,-6.2308 0.0518,-2.07585 0.26151,-4.14393 0.58775,-6.19649 0.33334,-2.05254 0.8434,-4.07726 1.4661,-6.08839 -0.48741,0.93468 -0.88096,1.91598 -1.24992,2.90632 -0.34242,1.00071 -0.63175,2.01954 -0.87771,3.05003 -0.49066,2.06484 -0.7295,4.18342 -0.8033,6.30199 -0.0518,2.11857 0.0564,4.24232 0.37867,6.33435 m 1.96452,0 c 0.31782,2.08816 0.77222,4.16402 1.52889,6.13371 -0.20195,-1.03308 -0.38643,-2.06291 -0.51136,-3.10246 -0.1521,-1.03371 -0.27056,-2.06937 -0.34953,-3.10826 -0.15924,-2.07781 -0.24209,-4.15624 -0.17024,-6.2308 0.0531,-2.07585 0.26345,-4.14393 0.58839,-6.19649 0.334,-2.05254 0.84406,-4.07726 1.46674,-6.08839 -0.48675,0.93468 -0.8803,1.91598 -1.25056,2.90632 -0.34176,1.00071 -0.63304,2.01954 -0.87771,3.05003 -0.49,2.06484 -0.73014,4.18342 -0.80264,6.30199 -0.0524,2.11857 0.0557,4.24232 0.37802,6.33435 m 1.96516,0 c 0.31782,2.08816 0.77092,4.16402 1.52825,6.13371 -0.2026,-1.03308 -0.38578,-2.06291 -0.51136,-3.10246 -0.15147,-1.03371 -0.26992,-2.06937 -0.34889,-3.10826 -0.15923,-2.07781 -0.24209,-4.15624 -0.17023,-6.2308 0.0525,-2.07585 0.26344,-4.14393 0.58838,-6.19649 0.33336,-2.05254 0.84342,-4.07726 1.46546,-6.08839 -0.48547,0.93468 -0.87902,1.91598 -1.24991,2.90632 -0.34307,1.00071 -0.6324,2.01954 -0.87708,3.05003 -0.49129,2.06484 -0.73013,4.18342 -0.80458,6.30199 -0.0505,2.11857 0.0583,4.24232 0.37996,6.33435 m 1.96516,0 c 0.31783,2.08816 0.77093,4.16402 1.52761,6.13371 -0.20196,-1.03308 -0.38514,-2.06291 -0.51071,-3.10246 -0.15147,-1.03371 -0.27121,-2.06937 -0.35019,-3.10826 -0.15923,-2.07781 -0.24078,-4.15624 -0.16893,-6.2308 0.0525,-2.07585 0.26214,-4.14393 0.58838,-6.19649 0.33271,-2.05254 0.8434,-4.07726 1.46481,-6.08839 -0.48611,0.93468 -0.88031,1.91598 -1.24927,2.90632 -0.34241,1.00071 -0.6324,2.01954 -0.87772,3.05003 -0.49,2.06484 -0.72949,4.18342 -0.80393,6.30199 -0.0511,2.11857 0.0569,4.24232 0.37995,6.33435 m 1.96452,0 c 0.31718,2.08816 0.77157,4.16402 1.52826,6.13371 -0.2026,-1.03308 -0.38579,-2.06291 -0.51137,-3.10246 -0.15146,-1.03371 -0.27056,-2.06937 -0.34954,-3.10826 -0.15922,-2.07781 -0.24143,-4.15624 -0.16894,-6.2308 0.0518,-2.07585 0.2615,-4.14393 0.5871,-6.19649 0.33399,-2.05254 0.84406,-4.07726 1.46676,-6.08839 -0.48742,0.93468 -0.88097,1.91598 -1.24991,2.90632 -0.34242,1.00071 -0.63371,2.01954 -0.87839,3.05003 -0.48934,2.06484 -0.72949,4.18342 -0.80392,6.30199 -0.0499,2.11857 0.0569,4.24232 0.37995,6.33435 m 1.96452,0 c 0.31846,2.08816 0.77157,4.16402 1.52889,6.13371 -0.20324,-1.03308 -0.38643,-2.06291 -0.51264,-3.10246 -0.15082,-1.03371 -0.26928,-2.06937 -0.34824,-3.10826 -0.15924,-2.07781 -0.24209,-4.15624 -0.17025,-6.2308 0.0524,-2.07585 0.26281,-4.14393 0.5884,-6.19649 0.33399,-2.05254 0.84405,-4.07726 1.46545,-6.08839 -0.48611,0.93468 -0.88031,1.91598 -1.24926,2.90632 -0.34242,1.00071 -0.6324,2.01954 -0.87772,3.05003 -0.4913,2.06484 -0.73015,4.18342 -0.80394,6.30199 -0.0511,2.11857 0.0569,4.24232 0.37931,6.33435 m 1.96452,0 c 0.31847,2.08816 0.77157,4.16402 1.52889,6.13371 -0.20325,-1.03308 -0.38578,-2.06291 -0.512,-3.10246 -0.15146,-1.03371 -0.27057,-2.06937 -0.34889,-3.10826 -0.15924,-2.07781 -0.24208,-4.15624 -0.16959,-6.2308 0.0518,-2.07585 0.2615,-4.14393 0.58774,-6.19649 0.33335,-2.05254 0.84342,-4.07726 1.46611,-6.08839 -0.48741,0.93468 -0.88031,1.91598 -1.24992,2.90632 -0.34242,1.00071 -0.6324,2.01954 -0.87772,3.05003 -0.49063,2.06484 -0.72949,4.18342 -0.80264,6.30199 -0.0524,2.11857 0.055,4.24232 0.37802,6.33435 m 1.96516,0 c 0.31782,2.08816 0.77222,4.16402 1.52825,6.13371 -0.20195,-1.03308 -0.38643,-2.06291 -0.51136,-3.10246 -0.15081,-1.03371 -0.27057,-2.06937 -0.34953,-3.10826 -0.15923,-2.07781 -0.24209,-4.15624 -0.16959,-6.2308 0.0525,-2.07585 0.26216,-4.14393 0.58838,-6.19649 0.33336,-2.05254 0.84342,-4.07726 1.46611,-6.08839 -0.48741,0.93468 -0.88095,1.91598 -1.25056,2.90632 -0.34177,1.00071 -0.6324,2.01954 -0.87771,3.05003 -0.49001,2.06484 -0.72885,4.18342 -0.8033,6.30199 -0.0511,2.11857 0.0569,4.24232 0.37931,6.33435 m 1.96453,0 c 0.31782,2.08816 0.77092,4.16402 1.52824,6.13371 -0.2026,-1.03308 -0.38578,-2.06291 -0.512,-3.10246 -0.14953,-1.03371 -0.26927,-2.06937 -0.34824,-3.10826 -0.15924,-2.07781 -0.24209,-4.15624 -0.17024,-6.2308 0.0518,-2.07585 0.2628,-4.14393 0.58838,-6.19649 0.33336,-2.05254 0.84343,-4.07726 1.46546,-6.08839 -0.48611,0.93468 -0.87966,1.91598 -1.24927,2.90632 -0.34306,1.00071 -0.6324,2.01954 -0.87836,3.05003 -0.49001,2.06484 -0.72949,4.18342 -0.80264,6.30199 -0.0518,2.11857 0.0564,4.24232 0.37867,6.33435 m 1.96451,0 c 0.31847,2.08816 0.77157,4.16402 1.5289,6.13371 -0.2026,-1.03308 -0.38579,-2.06291 -0.51201,-3.10246 -0.15082,-1.03371 -0.27057,-2.06937 -0.34953,-3.10826 -0.15923,-2.07781 -0.2421,-4.15624 -0.16894,-6.2308 0.0525,-2.07585 0.26215,-4.14393 0.58838,-6.19649 0.3327,-2.05254 0.84277,-4.07726 1.46546,-6.08839 -0.48741,0.93468 -0.88097,1.91598 -1.24991,2.90632 -0.34177,1.00071 -0.6324,2.01954 -0.87773,3.05003 -0.49064,2.06484 -0.7295,4.18342 -0.80328,6.30199 -0.0518,2.11857 0.0564,4.24232 0.37866,6.33435 m 1.96453,0 c 0.31782,2.08816 0.7722,4.16402 1.52824,6.13371 -0.20131,-1.03308 -0.38514,-2.06291 -0.51136,-3.10246 -0.15017,-1.03371 -0.26991,-2.06937 -0.34889,-3.10826 -0.15923,-2.07781 -0.24208,-4.15624 -0.1683,-6.2308 0.0511,-2.07585 0.26086,-4.14393 0.5871,-6.19649 0.33335,-2.05254 0.84341,-4.07726 1.4661,-6.08839 -0.48611,0.93468 -0.88095,1.91598 -1.24991,2.90632 -0.34241,1.00071 -0.6337,2.01954 -0.87902,3.05003 -0.48935,2.06484 -0.72884,4.18342 -0.80263,6.30199 -0.0518,2.11857 0.0564,4.24232 0.37867,6.33435 m 1.96515,0 c 0.31783,2.08816 0.77157,4.16402 1.52889,6.13371 -0.2026,-1.03308 -0.38643,-2.06291 -0.51135,-3.10246 -0.15211,-1.03371 -0.27056,-2.06937 -0.34954,-3.10826 -0.15988,-2.07781 -0.24273,-4.15624 -0.17023,-6.2308 0.0524,-2.07585 0.26279,-4.14393 0.58838,-6.19649 0.334,-2.05254 0.84472,-4.07726 1.46676,-6.08839 -0.48741,0.93468 -0.88096,1.91598 -1.2512,2.90632 -0.34112,1.00071 -0.63241,2.01954 -0.87709,3.05003 -0.49063,2.06484 -0.72949,4.18342 -0.80392,6.30199 -0.0511,2.11857 0.0569,4.24232 0.3793,6.33435 m 1.96517,0 c 0.31781,2.08816 0.77092,4.16402 1.5276,6.13371 -0.20196,-1.03308 -0.38449,-2.06291 -0.51136,-3.10246 -0.15081,-1.03371 -0.27057,-2.06937 -0.34888,-3.10826 -0.15924,-2.07781 -0.24208,-4.15624 -0.1696,-6.2308 0.0518,-2.07585 0.26151,-4.14393 0.58774,-6.19649 0.33336,-2.05254 0.84341,-4.07726 1.46611,-6.08839 -0.48676,0.93468 -0.88095,1.91598 -1.24991,2.90632 -0.34241,1.00071 -0.6324,2.01954 -0.87707,3.05003 -0.49065,2.06484 -0.73015,4.18342 -0.80394,6.30199 -0.0524,2.11857 0.0557,4.24232 0.37931,6.33435 m 1.96452,0 c 0.31782,2.08816 0.77157,4.16402 1.52824,6.13371 -0.2026,-1.03308 -0.38643,-2.06291 -0.51135,-3.10246 -0.15146,-1.03371 -0.26992,-2.06937 -0.34954,-3.10826 -0.15924,-2.07781 -0.24143,-4.15624 -0.16894,-6.2308 0.0525,-2.07585 0.2615,-4.14393 0.58774,-6.19649 0.33335,-2.05254 0.84342,-4.07726 1.4661,-6.08839 -0.4874,0.93468 -0.88031,1.91598 -1.24991,2.90632 -0.34242,1.00071 -0.63304,2.01954 -0.87837,3.05003 -0.48999,2.06484 -0.72884,4.18342 -0.80328,6.30199 -0.0505,2.11857 0.0569,4.24232 0.37931,6.33435 m 1.96516,0 c 0.31717,2.08816 0.77028,4.16402 1.52825,6.13371 -0.20195,-1.03308 -0.38643,-2.06291 -0.51265,-3.10246 -0.15082,-1.03371 -0.26928,-2.06937 -0.34824,-3.10826 -0.15923,-2.07781 -0.24274,-4.15624 -0.17024,-6.2308 0.0518,-2.07585 0.26346,-4.14393 0.58774,-6.19649 0.33465,-2.05254 0.84406,-4.07726 1.46675,-6.08839 -0.48676,0.93468 -0.88032,1.91598 -1.25056,2.90632 -0.34242,1.00071 -0.6324,2.01954 -0.87707,3.05003 -0.49065,2.06484 -0.72949,4.18342 -0.80329,6.30199 -0.0511,2.11857 0.0569,4.24232 0.37931,6.33435 m 1.96388,0 c 0.31847,2.08816 0.77157,4.16402 1.52889,6.13371 -0.20195,-1.03308 -0.38514,-2.06291 -0.51201,-3.10246 -0.15082,-1.03371 -0.26991,-2.06937 -0.34953,-3.10826 -0.15794,-2.07781 -0.24144,-4.15624 -0.16894,-6.2308 0.0518,-2.07585 0.26215,-4.14393 0.58838,-6.19649 0.33271,-2.05254 0.84278,-4.07726 1.46546,-6.08839 -0.48742,0.93468 -0.88031,1.91598 -1.24927,2.90632 -0.34306,1.00071 -0.63305,2.01954 -0.87836,3.05003 -0.49066,2.06484 -0.7295,4.18342 -0.80329,6.30199 -0.0518,2.11857 0.0564,4.24232 0.37867,6.33435 m 1.96516,0 c 0.31717,2.08816 0.77157,4.16402 1.52825,6.13371 -0.20195,-1.03308 -0.3858,-2.06291 -0.51201,-3.10246 -0.15017,-1.03371 -0.26992,-2.06937 -0.34825,-3.10826 -0.15986,-2.07781 -0.24273,-4.15624 -0.16957,-6.2308 0.0524,-2.07585 0.26214,-4.14393 0.58837,-6.19649 0.33336,-2.05254 0.84278,-4.07726 1.46481,-6.08839 -0.48675,0.93468 -0.88031,1.91598 -1.24925,2.90632 -0.34177,1.00071 -0.63371,2.01954 -0.87838,3.05003 -0.49064,2.06484 -0.7295,4.18342 -0.80328,6.30199 -0.0511,2.11857 0.0569,4.24232 0.37931,6.33435 m 1.96452,0 c 0.31782,2.08816 0.77156,4.16402 1.5289,6.13371 -0.2026,-1.03308 -0.38579,-2.06291 -0.51201,-3.10246 -0.15082,-1.03371 -0.26991,-2.06937 -0.34889,-3.10826 -0.15923,-2.07781 -0.24273,-4.15624 -0.16959,-6.2308 0.0518,-2.07585 0.2628,-4.14393 0.58773,-6.19649 0.33401,-2.05254 0.84406,-4.07726 1.46676,-6.08839 -0.48741,0.93468 -0.88095,1.91598 -1.25056,2.90632 -0.34176,1.00071 -0.63305,2.01954 -0.87837,3.05003 -0.48935,2.06484 -0.72884,4.18342 -0.80328,6.30199 -0.0511,2.11857 0.0569,4.24232 0.37931,6.33435 m 1.96451,0 c 0.31847,2.08816 0.77222,4.16402 1.52954,6.13371 -0.20325,-1.03308 -0.38643,-2.06291 -0.51264,-3.10246 -0.15082,-1.03371 -0.26992,-2.06937 -0.3489,-3.10826 -0.15923,-2.07781 -0.24208,-4.15624 -0.16958,-6.2308 0.0525,-2.07585 0.26214,-4.14393 0.58838,-6.19649 0.33335,-2.05254 0.84277,-4.07726 1.46546,-6.08839 -0.48676,0.93468 -0.88031,1.91598 -1.24991,2.90632 -0.34177,1.00071 -0.63175,2.01954 -0.87708,3.05003 -0.49128,2.06484 -0.73014,4.18342 -0.80393,6.30199 -0.0518,2.11857 0.0569,4.24232 0.37866,6.33435 m 1.96517,0 c 0.31846,2.08816 0.77157,4.16402 1.52824,6.13371 -0.2026,-1.03308 -0.38577,-2.06291 -0.51135,-3.10246 -0.15146,-1.03371 -0.27057,-2.06937 -0.34888,-3.10826 -0.15924,-2.07781 -0.24209,-4.15624 -0.1696,-6.2308 0.0518,-2.07585 0.26151,-4.14393 0.58774,-6.19649 0.33335,-2.05254 0.84406,-4.07726 1.46611,-6.08839 -0.48741,0.93468 -0.88032,1.91598 -1.24992,2.90632 -0.34241,1.00071 -0.63304,2.01954 -0.87837,3.05003 -0.48999,2.06484 -0.72884,4.18342 -0.80328,6.30199 -0.0518,2.11857 0.0564,4.24232 0.37931,6.33435 m 5.83725,-19.17783 c -2.42928,4.18471 -3.72386,9.24326 -3.72386,14.70378 0,3.63647 1.04797,8.63807 2.38655,11.38579 l 0.11976,0.24663 h -48.44819 c -3.84035,-8.44906 -2.63317,-19.55263 0,-26.3362 z m 112.66947,21.97541 2.11145,6.2418 c 0.41685,1.31269 0.76898,2.6254 1.08937,3.90574 h 0.0634 c 0.32041,-1.24798 0.64081,-2.52832 1.12109,-3.93746 l 2.11276,-6.21008 z m 1.63116,12.6137 -7.33053,-21.57798 h 2.88172 l 2.24091,6.78681 h 7.65159 l 2.30499,-6.78681 h 2.97623 l -7.36291,21.57798 z m -60.37706,-51.1655 v 3.40797 h -6.14534 v -3.07073 c -3.63451,0.8007 -6.88261,2.64157 -9.41351,5.19513 l 2.42604,1.91468 -3.80864,4.82293 -2.18847,-1.72696 c -1.24475,2.52766 -1.94705,5.37054 -1.94705,8.37396 0,1.31917 0.13592,2.60857 0.3942,3.8533 l 3.07656,-1.18519 2.20984,5.73368 -3.07786,1.18584 c 2.64094,4.50771 7.08069,7.83476 12.32889,8.99147 v -4.24038 h 6.14534 v 4.57761 c 3.797,-0.40844 7.26387,-1.93668 10.0608,-4.24879 l -2.19624,-1.73279 3.80799,-4.82423 2.43639,1.92309 c 1.81693,-2.91474 2.87072,-6.35313 2.87072,-10.03361 0,-1.16512 -0.11128,-2.30434 -0.312,-3.41184 l -3.45263,1.33016 -2.20918,-5.73366 3.59438,-1.38585 c -2.93416,-5.28834 -8.31312,-9.04002 -14.60023,-9.71579 m -2.0493,41.45748 c -12.42792,0 -22.53856,-10.11258 -22.53856,-22.5405 0,-12.42857 10.11064,-22.5405 22.53856,-22.5405 12.42857,0 22.53984,10.11193 22.53984,22.5405 0,12.42792 -10.11127,22.5405 -22.53984,22.5405 m -172.6465,-41.45748 v 3.40797 h -6.14599 v -3.07073 c -3.63323,0.8007 -6.88262,2.64029 -9.41286,5.19513 l 2.42538,1.91468 -3.80799,4.82293 -2.18848,-1.72696 c -1.24473,2.52766 -1.94704,5.36924 -1.94704,8.37396 0,1.31982 0.13658,2.60986 0.3929,3.8533 l 3.0785,-1.18519 2.20855,5.73368 -3.07721,1.18584 c 2.64094,4.50771 7.08005,7.83476 12.32825,8.99147 v -4.24038 h 6.14599 v 4.57761 c 3.79764,-0.40844 7.26386,-1.93668 10.06014,-4.24879 l -2.19495,-1.73279 3.808,-4.82423 2.43575,1.92309 c 1.81692,-2.91474 2.87136,-6.35313 2.87136,-10.03361 0,-1.16512 -0.11196,-2.30434 -0.31329,-3.41184 l -3.45068,1.33016 -2.2105,-5.73366 3.5944,-1.38585 c -2.93482,-5.28834 -8.31247,-9.04002 -14.60023,-9.71579 m -2.04866,41.45748 c -12.42858,0 -22.53986,-10.11258 -22.53986,-22.5405 0,-12.42857 10.11128,-22.5405 22.53986,-22.5405 12.42857,0 22.53984,10.11193 22.53984,22.5405 0,12.42792 -10.11127,22.5405 -22.53984,22.5405 M 129.2448,414.3385 h 352.02414 v -0.87837 H 129.2448 Z m 0,-3.51154 h 352.02414 v -0.87772 H 129.2448 Z M 373.29165,240.83434 v -7.65029 c 0,-1.27839 -1.04083,-2.32052 -2.31988,-2.32052 h -7.65094 c -1.27838,0 -2.31987,1.04213 -2.31987,2.32052 v 7.65029 c 0,1.2784 1.04149,2.32053 2.31987,2.32053 h 7.65094 c 1.27905,0 2.31988,-1.04213 2.31988,-2.32053 m -117.63481,0 v -7.65029 c 0,-1.27839 -1.04084,-2.32052 -2.31924,-2.32052 h -7.65222 c -1.2771,0 -2.31859,1.04213 -2.31859,2.32052 v 7.65029 c 0,1.2784 1.04149,2.32053 2.31859,2.32053 h 7.65222 c 1.2784,0 2.31924,-1.04213 2.31924,-2.32053 m 56.57488,21.75081 -1.58974,-1.43504 1.58974,-1.43503 -2.13799,0.11006 0.10938,-2.13735 -1.43502,1.58972 -1.43375,-1.58972 0.10871,2.13735 -2.13671,-0.11006 1.58715,1.43503 -1.58715,1.43504 2.13671,-0.10871 -0.10871,2.1367 1.43375,-1.5878 1.43502,1.5878 -0.10938,-2.1367 z m 95.58884,-39.03662 c -4.76726,0 -8.63222,3.86431 -8.63222,8.63223 0,4.76663 3.86496,8.63158 8.63222,8.63158 4.76793,0 8.63159,-3.86495 8.63159,-8.63158 0,-4.76792 -3.86366,-8.63223 -8.63159,-8.63223 m -33.65119,9.63552 c 0,-1.76256 -1.43438,-3.1976 -3.1976,-3.1976 h -7.65094 c -1.76256,0 -3.19695,1.43504 -3.19695,3.1976 v 7.65029 c 0,1.76387 1.43439,3.1976 3.19695,3.1976 h 7.65094 c 1.76322,0 3.1976,-1.43373 3.1976,-3.1976 z m -117.63416,0 c 0,-1.76256 -1.43439,-3.1976 -3.19761,-3.1976 h -7.65222 c -1.76258,0 -3.19631,1.43504 -3.19631,3.1976 v 7.65029 c 0,1.76387 1.43373,3.1976 3.19631,3.1976 h 7.65222 c 1.76322,0 3.19761,-1.43373 3.19761,-3.1976 z m -47.11283,-9.63552 c -4.76727,0 -8.63093,3.86431 -8.63093,8.63223 0,4.76663 3.86366,8.63158 8.63093,8.63158 4.76728,0 8.63223,-3.86495 8.63223,-8.63158 0,-4.76792 -3.86495,-8.63223 -8.63223,-8.63223 m 99.34571,31.01738 c -3.63064,0 -6.58357,2.95487 -6.58357,6.5842 0,3.63194 2.95293,6.58422 6.58357,6.58422 3.62998,0 6.58419,-2.95228 6.58419,-6.58422 0,-3.62933 -2.95421,-6.5842 -6.58419,-6.5842 m 123.98793,24.50047 c -0.79033,0.62658 -1.7425,0.95864 -2.75032,0.95864 H 185.85981 c -0.90555,0 -1.75738,-0.2984 -2.4668,-0.86218 -0.70749,-0.56509 -1.18778,-1.33018 -1.39038,-2.21372 l -13.02343,-57.05777 278.47997,0.43822 -13.14512,56.27713 c -0.22979,0.98194 -0.76898,1.83312 -1.55803,2.45968 m 70.85211,-45.45059 -1.59103,-1.43503 1.59103,-1.43504 -2.13929,0.11072 0.10938,-2.13863 -1.43503,1.58975 -1.43439,-1.58975 0.10871,2.13863 -2.1367,-0.11072 1.5891,1.43504 -1.5891,1.43503 2.1367,-0.1087 -0.10871,2.13669 1.43439,-1.58845 1.43503,1.58845 -0.10938,-2.13669 z m 0,236.14606 -1.59103,-1.43438 1.59103,-1.43505 -2.13929,0.10871 0.10938,-2.1367 -1.43503,1.58844 -1.43439,-1.58844 0.10871,2.1367 -2.1367,-0.10871 1.5891,1.43505 -1.5891,1.43438 2.1367,-0.10938 -0.10871,2.13799 1.43439,-1.58974 1.43503,1.58974 -0.10938,-2.13799 z m -388.01908,0 -1.58994,-1.43438 1.58994,-1.43505 -2.13781,0.10871 0.10916,-2.1367 -1.43413,1.58844 -1.43465,-1.58844 0.10949,2.1367 -2.1378,-0.10871 1.58942,1.43505 -1.58942,1.43438 2.1378,-0.10938 -0.10949,2.13799 1.43465,-1.58974 1.43413,1.58974 -0.10916,-2.13799 z M 516.38494,240.44856 c 0,-0.44469 -0.36248,-0.80586 -0.80458,-0.80586 h -0.14823 c -0.44338,0 -0.80393,0.36117 -0.80393,0.80586 v 66.86353 c 0,0.44403 0.36055,0.80392 0.80393,0.80392 h 0.14823 c 0.4421,0 0.80458,-0.35989 0.80458,-0.80392 z M 500.1432,461.7439 c -3.62999,0 -6.58421,2.95293 -6.58421,6.58357 0,3.63063 2.95422,6.5842 6.58421,6.5842 3.63128,0 6.58422,-2.95357 6.58422,-6.5842 0,-3.63064 -2.95294,-6.58357 -6.58422,-6.58357 m 0,-236.1467 c -3.62999,0 -6.58421,2.95357 -6.58421,6.58356 0,3.63129 2.95422,6.5842 6.58421,6.5842 3.63128,0 6.58422,-2.95291 6.58422,-6.5842 0,-3.62999 -2.95294,-6.58356 -6.58422,-6.58356 M 112.12631,461.7439 c -3.63064,0 -6.58388,2.95293 -6.58388,6.58357 0,3.63063 2.95324,6.5842 6.58388,6.5842 3.63064,0 6.58388,-2.95357 6.58388,-6.5842 0,-3.63064 -2.95324,-6.58357 -6.58388,-6.58357 M 100.34819,239.6427 h -0.1469 c -0.443493,0 -0.804303,0.36117 -0.804303,0.80586 v 66.86353 c 0,0.44403 0.36081,0.80392 0.804303,0.80392 h 0.1469 c 0.4435,0 0.80431,-0.35989 0.80431,-0.80392 v -66.86353 c 0,-0.44469 -0.36081,-0.80586 -0.80431,-0.80586 m 415.23217,69.35232 h -0.14823 c -0.92691,0 -1.68166,-0.75537 -1.68166,-1.68293 v 160.51243 c 0,3.49924 -1.11592,6.77775 -3.78468,9.44781 -2.66941,2.66942 -5.94793,3.78469 -9.44717,3.78469 H 111.97963 c 0,0 -4.31605,0.36506 -7.24175,-2.26874 -2.92671,-2.63381 -3.58538,-8.26586 -3.58538,-8.26586 V 308.78013 c -0.23995,0.13204 -0.51124,0.21489 -0.80431,0.21489 h -0.1469 c -0.927443,0 -1.681943,-0.75537 -1.681943,-1.68293 v -66.86353 c 0,-0.92886 0.7545,-1.6836 1.681943,-1.6836 h 0.1469 c 0.29307,0 0.56436,0.0828 0.80431,0.21426 v -9.92292 c 0,-2.11921 1.02883,-4.46111 2.6473,-6.07868 1.61848,-1.61886 3.95829,-2.64805 6.07971,-2.64805 h 53.46894 l 13.42086,60.95314 c 0.25245,1.14893 0.857,2.14381 1.74703,2.88107 0.11392,0.0945 0.24079,0.167 0.36248,0.25115 H 115.1984 V 440.7336 c 0,0.83046 0.17574,1.6344 0.52087,2.38783 0.3489,0.75863 0.84349,1.41692 1.47259,1.9587 l 21.58173,18.55643 c 0.60405,0.51913 1.28745,0.9224 2.03313,1.19942 0.74969,0.27769 1.53324,0.41946 2.33146,0.41946 h 327.85701 c 0.96964,0 1.91986,-0.17865 2.82282,-0.52884 0.90297,-0.34953 1.72438,-0.85766 2.44092,-1.51012 l 19.8918,-18.14346 c 1.12498,-1.02531 2.00918,-2.25386 2.62604,-3.65007 0.61623,-1.39425 0.92757,-2.87525 0.92757,-4.39897 V 284.41493 h -62.59271 c 0.17218,-0.11327 0.34694,-0.21879 0.50876,-0.35343 0.97417,-0.80005 1.63959,-1.88684 1.92244,-3.14192 l 13.62347,-60.46121 -0.56832,-0.1288 h 58.18792 c 0.8706,0 1.52178,0.55279 2.18654,1.21625 0.66541,0.66412 0.77803,1.75544 0.77803,2.62605 v 16.27669 c 0,-0.92886 0.75475,-1.6836 1.68166,-1.6836 h 0.14823 c 0.92692,0 1.681,0.75474 1.681,1.6836 v 66.86353 c 0,0.92756 -0.75408,1.68293 -1.681,1.68293 m -120.63499,24.14059 c -15.56986,0 -28.23664,12.66742 -28.23664,28.23793 0,15.56986 12.66678,28.23728 28.23664,28.23728 15.5705,0 28.23857,-12.66742 28.23857,-28.23728 0,-15.57051 -12.66807,-28.23793 -28.23857,-28.23793 m -42.72292,24.1419 h -89.54254 v 28.96935 h 89.54254 z m -4.38926,-3.51284 h 3.51152 v -9.65558 h -3.51152 z m 1.84218,-20.30606 c -1.3373,0 -2.2422,1.25315 -2.26357,3.51671 0,2.29594 0.9897,3.55944 2.38008,3.55944 1.44151,0 2.26292,-1.28486 2.26292,-3.46493 0,-2.3257 -0.86349,-3.61122 -2.37943,-3.61122 m -6.23145,14.16201 h -1.75609 v 6.14405 h 1.75609 z m -9.65623,0 h -1.7561 v 6.14405 h 1.7561 z m -7.90144,0 h -1.75544 v 6.14405 h 1.75544 z m -9.65688,0 h -1.7548 v 6.14405 h 1.7548 z m -5.85148,-14.16201 c -1.33729,0 -2.24285,1.25315 -2.26422,3.51671 0,2.29594 0.99036,3.55944 2.38009,3.55944 1.44215,0 2.26291,-1.28486 2.26291,-3.46493 0,-2.3257 -0.86284,-3.61122 -2.37878,-3.61122 m -4.68248,20.30606 h 3.51218 v -9.65558 h -3.51218 z m -1.21755,-20.30606 c -0.74697,0 -1.37808,0.21167 -1.7043,0.4214 l 0.23108,0.70554 c 0.2848,-0.1696 0.84083,-0.37932 1.46221,-0.37932 0.87449,0 1.62211,0.56767 1.62211,1.48423 -0.0101,0.88484 -0.60004,1.51595 -1.96776,1.51595 -0.39031,0 -0.69518,-0.0415 -0.94892,-0.0731 l 0.4421,3.28499 h 3.27592 v -0.77933 h -2.61181 l -0.2628,-1.75869 c 0.1573,0.0214 0.30424,0.0434 0.55798,0.0434 0.52623,0 1.05183,-0.1165 1.47322,-0.36959 0.53854,-0.30488 0.97998,-0.89391 0.97998,-1.75804 0,-1.3373 -1.06349,-2.33735 -2.54901,-2.33735 m -3.1717,14.162 h -1.75545 v 6.14405 h 1.75545 z m -9.65624,0 h -1.75545 v 6.14405 h 1.75545 z m -7.90015,0 h -1.75608 v 6.14405 h 1.75608 z m -9.65753,0 h -1.75544 v 6.14405 h 1.75544 z m -3.37625,-14.162 c -1.33601,0 -2.24157,1.25314 -2.26228,3.51671 0,2.29593 0.98971,3.55943 2.37943,3.55943 1.44216,0 2.26293,-1.28486 2.26293,-3.46493 0,-2.32569 -0.86284,-3.61121 -2.38008,-3.61121 m -7.15836,20.30605 h 3.51218 v -9.65558 h -3.51218 z m 1.75675,-20.30605 c -1.3373,0 -2.24415,1.25314 -2.26421,3.51671 0,2.29593 0.9897,3.55943 2.37877,3.55943 1.44216,0 2.26356,-1.28486 2.26356,-3.46493 0,-2.32569 -0.86348,-3.61121 -2.37812,-3.61121 m -4.66825,0.11651 h -0.8952 v 5.98093 h -0.0207 l -1.19035,-0.6434 -0.1793,0.70426 1.49653,0.80133 h 0.78903 z m -40.39592,-0.43952 c -15.57051,0 -28.23793,12.66743 -28.23793,28.23793 0,15.56986 12.66742,28.23728 28.23793,28.23728 15.56985,0 28.23791,-12.66742 28.23791,-28.23728 0,-15.5705 -12.66806,-28.23793 -28.23791,-28.23793 m 174.69516,61.45088 -174.69516,-0.1476 c -18.26258,0 -33.06605,-14.80346 -33.06605,-33.06538 0,-18.26323 14.80347,-33.06734 33.06605,-33.06734 l 174.76895,0.0388 c 18.26128,0 33.02914,14.85915 33.02914,33.12171 0,18.26128 -14.84036,33.11977 -33.10293,33.11977 m 0,-57.35421 c -13.31083,0 -24.14059,10.82977 -24.14059,24.14123 0,13.31083 10.82976,24.14189 24.14059,24.14189 13.31146,0 24.14253,-10.83106 24.14253,-24.14189 0,-13.31146 -10.83107,-24.14123 -24.14253,-24.14123 m 0,51.50014 c -15.08504,0 -27.3589,-12.27322 -27.3589,-27.35891 0,-15.08633 12.27386,-27.36019 27.3589,-27.36019 15.08633,0 27.35955,12.27386 27.35955,27.36019 0,15.08569 -12.27322,27.35891 -27.35955,27.35891 M 272.16915,337.02712 c 0,-1.74573 -0.45117,-2.85129 -1.39944,-2.85129 -0.84213,0 -1.38973,1.0104 -1.38973,2.7885 0,1.8629 0.58969,2.85325 1.39879,2.85325 0.95929,0 1.39038,-1.10557 1.39038,-2.79046 m 39.6606,0 c 0,-1.74573 -0.45245,-2.85129 -1.39944,-2.85129 -0.84147,0 -1.38971,1.0104 -1.38971,2.7885 0,1.8629 0.59032,2.85325 1.40007,2.85325 0.95799,0 1.38908,-1.10557 1.38908,-2.79046 m -45.06351,0 c 0,-1.74573 -0.45246,-2.85129 -1.40009,-2.85129 -0.84211,0 -1.38907,1.0104 -1.38907,2.7885 0,1.8629 0.58968,2.85325 1.39943,2.85325 0.95799,0 1.38973,-1.10557 1.38973,-2.79046 m 84.36164,0 c 0,-1.74573 -0.45245,-2.85129 -1.40008,-2.85129 -0.84212,0 -1.38973,1.0104 -1.38973,2.7885 0,1.8629 0.58968,2.85325 1.40008,2.85325 0.95928,0 1.38973,-1.10557 1.38973,-2.79046 m -130.87767,0.20519 c -13.31083,0 -24.14124,10.82978 -24.14124,24.14124 0,13.31083 10.83041,24.14188 24.14124,24.14188 13.31082,0 24.14123,-10.83105 24.14123,-24.14188 0,-13.31146 -10.83041,-24.14124 -24.14123,-24.14124 m 0,51.50014 c -15.08569,0 -27.35956,-12.27321 -27.35956,-27.3589 0,-15.08633 12.27387,-27.36019 27.35956,-27.36019 15.08633,0 27.36085,12.27386 27.36085,27.36019 0,15.08569 -12.27452,27.3589 -27.36085,27.3589 m 232.03902,-168.3718 0.007,-0.031 h -4.38538 l 0.10288,0.0247 0.32494,0.0751 -13.16842,56.3768 c -0.27639,1.17742 -0.92238,2.19625 -1.86807,2.94775 -0.94762,0.7528 -2.0875,1.14958 -3.29599,1.14958 h -244.1461 c -1.09003,0 -2.16,-0.37543 -3.01377,-1.05572 -0.86542,-0.68872 -1.45186,-1.62339 -1.69848,-2.70308 l -13.04608,-57.15678 0.39291,-0.0887 -4.3446,-0.008 13.47652,61.20299 c 0.21103,0.95411 0.71202,1.78328 1.44928,2.39238 0.73403,0.6065 1.61758,0.9282 2.5555,0.9282 h 252.58392 c 1.04407,0 2.0286,-0.35665 2.84872,-1.03048 0.8214,-0.67577 1.3826,-1.59491 1.62404,-2.65776 z M 119.58728,440.7336 c 0,0.19547 0.0415,0.38384 0.12318,0.56119 0.0809,0.17671 0.19749,0.33206 0.3459,0.45958 l 21.57843,18.5532 c 0.2081,0.17994 0.44373,0.31846 0.70192,0.41427 0.25737,0.0951 0.52592,0.14305 0.80147,0.14305 h 327.85701 c 0.42398,0 0.84018,-0.0777 1.23632,-0.23108 0.39614,-0.15342 0.75604,-0.37608 1.06932,-0.66153 l 19.89244,-18.14218 c 0.67318,-0.61299 1.20007,-1.34571 1.56838,-2.17877 0.36702,-0.83371 0.55344,-1.71791 0.55344,-2.62735 V 288.80289 H 119.58728 Z M 434.21501,285.29265 h 64.61096 v 151.73133 c 0,1.40203 -0.28676,2.76197 -0.85119,4.04426 -0.56831,1.28486 -1.38001,2.41374 -2.41567,3.35619 l -19.89245,18.14218 c -0.63499,0.57996 -1.36382,1.03047 -2.16582,1.34117 -0.80134,0.31135 -1.64476,0.46929 -2.50565,0.46929 H 143.13818 c -0.69304,0 -1.37367,-0.12234 -2.02555,-0.36378 -0.64774,-0.24079 -1.24195,-0.59162 -1.76735,-1.04278 l -21.58122,-18.55643 c -0.53253,-0.45828 -0.95152,-1.01561 -1.24784,-1.65836 -0.29129,-0.63887 -0.43944,-1.31917 -0.43944,-2.02212 V 285.29265 h 65.55431 252.58392"
       style="fill:#100f0d;fill-opacity:1;fill-rule:nonzero;stroke:none;stroke-width:0.0647288"
       id="path66"
       sodipodi:nodetypes="ccccccccccccccccccccccccccccccccccccccccccccccccccccccccccccccccccccccccccccccccccccccccccccccccccccccccccccccccccccccccccccccccccccccccccccccccccccccccccccccccccccccccccccccsccccccccccccccccccccccccccccccccccccccccccccccccccccccccccccccccccccccccccscccccccccccccccccccccccccccccsccccccccccccsccccccssscccccccccsccccccccccccsccccccsssccccccccccccsssssssccssssssscccccccccccccccccccssscsssssssssssssssssscsssccsssccsscccccccccccccccccccccccccccccccccccccccccccccccccccccccccssssssssscsssccsssccsssccsssssssccscscsccccsssssscscscccccsccccssccccsccccccssscssssccssscccccccccccccsscccccccccccccccccccccccsscccccccccscsccccccscscccccccccccccccccccccccssccccccccsscccccccccccssscccsccsccsssccsssccsssccsssccsssccsssccsssccsssccccccccsscccccccsscccsccccssscccsccsccsccccssccccsccc" /><text
       xml:space="preserve"
       style="font-style:normal;font-weight:normal;font-size:30px;line-height:1.25;font-family:sans-serif;fill:#000000;fill-opacity:1;stroke:none;stroke-width:0.75"
       x="294.70361"
       y="-300.50354"
       id="text4484"
       transform="scale(1,-1)"><tspan
         sodipodi:role="line"
         id="tspan4482"
         x="294.70361"
         y="-300.50354"
         style="font-style:italic;font-variant:normal;font-weight:normal;font-stretch:normal;font-family:'Liberation Serif';-inkscape-font-specification:'Liberation Serif Italic';stroke-width:0.75">ijc</tspan></text><text
       xml:space="preserve"
       style="font-style:normal;font-variant:normal;font-weight:normal;font-stretch:normal;font-size:31.0698px;line-height:1.25;font-family:'URW Bookman';-inkscape-font-specification:'URW Bookman';fill:#000000;fill-opacity:1;stroke:none;stroke-width:0.485466"
       x="188.46947"
       y="-419.90857"
       id="text920"
       transform="scale(1,-1)"><tspan
         id="tspan918"
         x="188.46947"
         y="-419.90857"
         style="font-style:normal;font-variant:normal;font-weight:normal;font-stretch:normal;font-size:31.0698px;font-family:'Liberation Sans';-inkscape-font-specification:'Liberation Sans';stroke-width:0.485466"
         sodipodi:role="line">caution: demo reel</tspan></text></g></svg>
