<?xml version="1.0" standalone="no"?>
<!DOCTYPE svg PUBLIC "-//W3C//DTD SVG 20010904//EN"
 "http://www.w3.org/TR/2001/REC-SVG-20010904/DTD/svg10.dtd">
<svg version="1.0" xmlns="http://www.w3.org/2000/svg"
 width="72.000000pt" height="72.000000pt" viewBox="0 0 72.000000 72.000000"
 preserveAspectRatio="xMidYMid meet">
<metadata>
Created by potrace 1.14, written by Peter Selinger 2001-2017
</metadata>
<g transform="translate(0.000000,72.000000) scale(0.100000,-0.100000)"
fill="#000000" stroke="none">
<path d="M0 360 l0 -360 360 0 360 0 0 360 0 360 -360 0 -360 0 0 -360z m533
18 c37 -134 67 -246 67 -250 0 -5 -18 -8 -39 -8 l-39 0 -17 65 c-10 36 -24 65
-31 65 -16 0 11 -110 32 -126 23 -18 16 -34 -16 -34 -33 0 -41 11 -60 88 l-11
42 -64 0 -64 0 -14 -47 c-13 -45 -16 -48 -50 -51 -25 -2 -37 1 -37 9 0 7 30
120 68 251 l67 238 70 0 70 0 68 -242z m-247 195 c-26 -90 -126 -443 -126
-447 0 -4 7 -6 15 -6 8 0 15 -7 15 -15 0 -10 -11 -15 -35 -15 -19 0 -35 4 -35
9 0 11 131 473 137 484 9 15 34 7 29 -10z"/>
<path d="M390 536 c0 -26 46 -205 55 -214 17 -18 14 20 -10 118 -27 107 -45
147 -45 96z"/>
<path d="M341 399 c-7 -24 -15 -52 -17 -61 -4 -15 1 -18 31 -18 34 0 35 1 29
28 -4 15 -12 42 -19 61 l-11 33 -13 -43z"/>
</g>
</svg>
